HIERARCHY
ROOT Hips
{
    OFFSET   0.000000   0.000000   0.000000
    CHANNELS 6 Xposition Yposition Zposition Zrotation Xrotation Yrotation
    JOINT Chest
    {
        OFFSET   0.000000   8.007240   0.000000
        CHANNELS 3 Zrotation Xrotation Yrotation
        JOINT Chest2
        {
            OFFSET   0.000000  22.077100   0.000000
            CHANNELS 3 Zrotation Xrotation Yrotation
            JOINT Neck
            {
                OFFSET   0.000000  23.254800   0.000000
                CHANNELS 3 Zrotation Xrotation Yrotation
                JOINT Head
                {
                    OFFSET   0.000000  14.370000   1.956600
                    CHANNELS 3 Zrotation Xrotation Yrotation
                    End Site
                    {
                        OFFSET   0.000000  19.566000   0.000000
                    }
                }
            }
            JOINT LeftCollar
            {
                OFFSET   3.911900  19.017000  -0.467064
                CHANNELS 3 Zrotation Xrotation Yrotation
                JOINT LeftShoulder
                {
                    OFFSET  10.383700   0.000000   0.000000
                    CHANNELS 3 Zrotation Xrotation Yrotation
                    JOINT LeftElbow
                    {
                        OFFSET  26.662100   0.001476   0.000517
                        CHANNELS 3 Zrotation Xrotation Yrotation
                        JOINT LeftWrist
                        {
                            OFFSET  28.869000  -0.000025  -0.000106
                            CHANNELS 3 Zrotation Xrotation Yrotation
                            JOINT LeftFinger0
                            {
                                OFFSET   2.044660  -2.323460   3.252850
                                CHANNELS 3 Zrotation Xrotation Yrotation
                                JOINT LeftFinger01
                                {
                                    OFFSET   3.088130   0.000000   0.000000
                                    CHANNELS 3 Zrotation Xrotation Yrotation
                                    JOINT LeftFinger02
                                    {
                                        OFFSET   2.639460   0.000000   0.000000
                                        CHANNELS 3 Zrotation Xrotation Yrotation
                                        End Site
                                        {
                                            OFFSET   2.582190   0.000000   0.000000
                                        }
                                    }
                                }
                            }
                            JOINT LeftFinger1
                            {
                                OFFSET   8.364480   0.000000   3.252850
                                CHANNELS 3 Zrotation Xrotation Yrotation
                                JOINT LeftFinger11
                                {
                                    OFFSET   4.646930   0.000000   0.000000
                                    CHANNELS 3 Zrotation Xrotation Yrotation
                                    JOINT LeftFinger12
                                    {
                                        OFFSET   2.323460   0.000000   0.000000
                                        CHANNELS 3 Zrotation Xrotation Yrotation
                                        End Site
                                        {
                                            OFFSET   2.273050   0.000000   0.000000
                                        }
                                    }
                                }
                            }
                            JOINT LeftFinger2
                            {
                                OFFSET   8.364490   0.000015   1.078090
                                CHANNELS 3 Zrotation Xrotation Yrotation
                                JOINT LeftFinger21
                                {
                                    OFFSET   5.111620   0.000000   0.000000
                                    CHANNELS 3 Zrotation Xrotation Yrotation
                                    JOINT LeftFinger22
                                    {
                                        OFFSET   2.788160   0.000016   0.000000
                                        CHANNELS 3 Zrotation Xrotation Yrotation
                                        End Site
                                        {
                                            OFFSET   2.727660   0.000000   0.000000
                                        }
                                    }
                                }
                            }
                            JOINT LeftFinger3
                            {
                                OFFSET   7.899780   0.000017  -1.078090
                                CHANNELS 3 Zrotation Xrotation Yrotation
                                JOINT LeftFinger31
                                {
                                    OFFSET   4.646930   0.000000   0.000000
                                    CHANNELS 3 Zrotation Xrotation Yrotation
                                    JOINT LeftFinger32
                                    {
                                        OFFSET   2.323470   0.000000   0.000000
                                        CHANNELS 3 Zrotation Xrotation Yrotation
                                        End Site
                                        {
                                            OFFSET   2.273050   0.000000   0.000000
                                        }
                                    }
                                }
                            }
                            JOINT LeftFinger4
                            {
                                OFFSET   7.435090   0.000000  -3.252850
                                CHANNELS 3 Zrotation Xrotation Yrotation
                                JOINT LeftFinger41
                                {
                                    OFFSET   3.717550   0.000000   0.000000
                                    CHANNELS 3 Zrotation Xrotation Yrotation
                                    JOINT LeftFinger42
                                    {
                                        OFFSET   1.858770   0.000000   0.000000
                                        CHANNELS 3 Zrotation Xrotation Yrotation
                                        End Site
                                        {
                                            OFFSET   1.818440   0.000000   0.000000
                                        }
                                    }
                                }
                            }
                        }
                    }
                }
            }
            JOINT RightCollar
            {
                OFFSET  -3.911900  19.017000  -0.467063
                CHANNELS 3 Zrotation Xrotation Yrotation
                JOINT RightShoulder
                {
                    OFFSET -10.383700   0.000019   0.000000
                    CHANNELS 3 Zrotation Xrotation Yrotation
                    JOINT RightElbow
                    {
                        OFFSET -26.662100   0.001175   0.000102
                        CHANNELS 3 Zrotation Xrotation Yrotation
                        JOINT RightWrist
                        {
                            OFFSET -28.869000   0.000016  -0.000079
                            CHANNELS 3 Zrotation Xrotation Yrotation
                            JOINT RightFinger0
                            {
                                OFFSET  -2.044660  -2.323490   3.252850
                                CHANNELS 3 Zrotation Xrotation Yrotation
                                JOINT RightFinger01
                                {
                                    OFFSET  -3.088140   0.000000   0.000000
                                    CHANNELS 3 Zrotation Xrotation Yrotation
                                    JOINT RightFinger02
                                    {
                                        OFFSET  -2.639460   0.000000   0.000000
                                        CHANNELS 3 Zrotation Xrotation Yrotation
                                        End Site
                                        {
                                            OFFSET  -2.582190   0.000000   0.000000
                                        }
                                    }
                                }
                            }
                            JOINT RightFinger1
                            {
                                OFFSET  -8.364480   0.000000   3.252850
                                CHANNELS 3 Zrotation Xrotation Yrotation
                                JOINT RightFinger11
                                {
                                    OFFSET  -4.646930   0.000000   0.000000
                                    CHANNELS 3 Zrotation Xrotation Yrotation
                                    JOINT RightFinger12
                                    {
                                        OFFSET  -2.323470   0.000000   0.000000
                                        CHANNELS 3 Zrotation Xrotation Yrotation
                                        End Site
                                        {
                                            OFFSET  -2.273050   0.000000   0.000000
                                        }
                                    }
                                }
                            }
                            JOINT RightFinger2
                            {
                                OFFSET  -8.364480   0.000000   1.078090
                                CHANNELS 3 Zrotation Xrotation Yrotation
                                JOINT RightFinger21
                                {
                                    OFFSET  -5.111620   0.000000   0.000000
                                    CHANNELS 3 Zrotation Xrotation Yrotation
                                    JOINT RightFinger22
                                    {
                                        OFFSET  -2.788160   0.000000   0.000000
                                        CHANNELS 3 Zrotation Xrotation Yrotation
                                        End Site
                                        {
                                            OFFSET  -2.727660   0.000000   0.000000
                                        }
                                    }
                                }
                            }
                            JOINT RightFinger3
                            {
                                OFFSET  -7.899780   0.000000  -1.078090
                                CHANNELS 3 Zrotation Xrotation Yrotation
                                JOINT RightFinger31
                                {
                                    OFFSET  -4.646930   0.000000   0.000000
                                    CHANNELS 3 Zrotation Xrotation Yrotation
                                    JOINT RightFinger32
                                    {
                                        OFFSET  -2.323470   0.000000   0.000000
                                        CHANNELS 3 Zrotation Xrotation Yrotation
                                        End Site
                                        {
                                            OFFSET  -2.273050   0.000000   0.000000
                                        }
                                    }
                                }
                            }
                            JOINT RightFinger4
                            {
                                OFFSET  -7.435090   0.000000  -3.252850
                                CHANNELS 3 Zrotation Xrotation Yrotation
                                JOINT RightFinger41
                                {
                                    OFFSET  -3.717550   0.000000   0.000000
                                    CHANNELS 3 Zrotation Xrotation Yrotation
                                    JOINT RightFinger42
                                    {
                                        OFFSET  -1.858770   0.000000   0.000000
                                        CHANNELS 3 Zrotation Xrotation Yrotation
                                        End Site
                                        {
                                            OFFSET  -1.818440   0.000000   0.000000
                                        }
                                    }
                                }
                            }
                        }
                    }
                }
            }
        }
    }
    JOINT LeftHip
    {
        OFFSET   9.783040   0.000000   0.000000
        CHANNELS 3 Zrotation Xrotation Yrotation
        JOINT LeftKnee
        {
            OFFSET   0.000032 -41.789100  -0.002222
            CHANNELS 3 Zrotation Xrotation Yrotation
            JOINT LeftAnkle
            {
                OFFSET   0.000087 -41.133200  -0.000135
                CHANNELS 3 Zrotation Xrotation Yrotation
                JOINT LeftToe
                {
                    OFFSET   0.000000  -6.358960  14.674500
                    CHANNELS 3 Zrotation Xrotation Yrotation
                    End Site
                    {
                        OFFSET   0.000000   0.000000   3.913200
                    }
                }
            }
        }
    }
    JOINT RightHip
    {
        OFFSET  -9.783040   0.000000   0.000000
        CHANNELS 3 Zrotation Xrotation Yrotation
        JOINT RightKnee
        {
            OFFSET   0.000047 -41.789100  -0.000896
            CHANNELS 3 Zrotation Xrotation Yrotation
            JOINT RightAnkle
            {
                OFFSET  -0.000117 -41.133300  -0.000248
                CHANNELS 3 Zrotation Xrotation Yrotation
                JOINT RightToe
                {
                    OFFSET   0.000000  -6.358970  14.674500
                    CHANNELS 3 Zrotation Xrotation Yrotation
                    End Site
                    {
                        OFFSET   0.000000   0.000000   3.913200
                    }
                }
            }
        }
    }
}
MOTION
Frames: 5
Frame Time:   0.016667
 -0.325378  89.547100   0.532133  -2.669820 -14.018200   1.955700   0.392401  11.079200   0.184369   0.769947  22.159500   0.298300   0.833296  -5.728140   0.074999   1.409110 -11.607900   4.173210  -9.040920  -7.860950  -4.562150 -51.292800  30.027500 -41.101900  11.260300 -10.260500 -73.409900  -0.973601 -85.189000  -4.624900  42.345400  51.875700 -86.673500 -50.963400   0.001749   0.002193 -26.126900   0.000236   0.001754 -58.449900  10.365700  -6.304600 -48.291000   0.001297  -0.001147 -36.218200   0.001005  -0.000183 -43.206200   4.770380  -5.061550 -54.443500   0.002073  -0.000742 -38.255700   0.000000  -0.004740 -50.639100   1.943470  -1.593410 -54.255400  -0.000608  -0.002357 -39.912100   0.000000   0.000000 -56.673300  -7.321240   4.789950 -85.469900   0.003251   0.000171 -56.923000   0.000423   0.002564  11.727400  -9.390930  13.179500  61.116000  32.123000  26.724900 -22.729800 -24.287900  78.526300 -77.065400 -73.971000 -86.327800 -43.714500  49.556300  88.322700  44.304700   0.004728  -0.004553  18.719900   0.001107  -0.000519  62.315600   9.753390   5.078370  51.340400  -0.001695   0.003309  38.505300  -0.002675   0.006379  59.657900   3.518520   2.055930  59.721000   0.000000   0.000953  44.790800  -0.000344   0.004279  65.864600  -1.787210  -0.802142  65.877100  -0.005197  -0.004222  49.407900  -0.007622   0.004369  56.695200  -7.331120  -4.792040  85.503600   0.002425   0.000399  56.945500   0.003050   0.000000   3.860950  15.624400  -1.043290   0.850907   0.078642  10.315600  -1.726800  -2.150980  -0.608990   0.000000   0.000000   0.000000   2.583220  15.571600  -4.838670   0.149004   0.521009 -16.333200   0.857106  -2.407320   3.220830   0.000000   0.000000   0.000000
 -0.324936  89.535800   0.549873  -2.672760 -14.012900   1.959140   0.393165  11.059600   0.204784   0.767839  22.120400   0.340152   0.838268  -5.725320   0.074787   1.416870 -11.602300   4.031310  -9.063450  -7.872110  -4.601610 -51.288700  30.123800 -41.185600  11.395300 -10.258700 -73.232800  -1.840320 -85.136200  -5.494020  42.030200  51.737100 -86.278200 -51.203700   0.001744   0.002241 -26.415900   0.000227   0.001727 -58.559500  10.350000  -6.268350 -48.377300   0.001296  -0.001112 -36.282900   0.000994  -0.000193 -43.262000   4.770560  -5.051400 -54.443700   0.002092  -0.000754 -38.270400   0.000000  -0.004706 -50.566200   1.950130  -1.603160 -54.259600  -0.000585  -0.002384 -39.897900   0.000000   0.000000 -56.588600  -7.283840   4.780790 -85.339600   0.003245   0.000168 -56.836200   0.000459   0.002527  11.729300  -9.385830  13.181000  61.090500  32.117000  26.745600 -22.755300 -24.401900  78.451200 -77.772000 -74.057300 -87.005200 -44.620400  50.137100  89.502600  43.892500   0.004855  -0.004589  18.303200   0.001023  -0.000555  62.181600   9.776330   5.119550  51.234400  -0.001723   0.003357  38.425800  -0.002696   0.006473  59.378200   3.571420   2.111480  59.444000   0.000000   0.000939  44.583000  -0.000448   0.004364  65.544800  -1.685870  -0.766452  65.556000  -0.005280  -0.004360  49.167000  -0.007564   0.004398  56.776600  -7.366990  -4.799980  85.628600   0.002374   0.000367  57.028700   0.003065  -0.000000   3.871840  15.643400  -1.053000   0.840868   0.054176  10.327700  -1.721990  -2.152640  -0.615766   0.000000   0.000000  -0.000000   2.591510  15.585200  -4.812150   0.147695   0.509209 -16.360100   0.854928  -2.415440   3.214520  -0.000000   0.000000   0.000000
 -0.324463  89.525600   0.567524  -2.678770 -14.010900   1.960450   0.397010  11.040900   0.224588   0.771124  22.083100   0.380408   0.839976  -5.709930   0.074428   1.420920 -11.570300   3.880950  -9.086370  -7.883460  -4.623510 -51.245400  30.247600 -41.298200  11.508300 -10.235600 -73.090100  -3.166410 -85.077700  -6.823150  41.818700  51.622500 -86.012600 -51.350200   0.001739   0.002283 -26.591900   0.000218   0.001700 -58.630200  10.339900  -6.244950 -48.432900   0.001295  -0.001080 -36.324700   0.000980  -0.000202 -43.286500   4.770690  -5.046900 -54.443900   0.002105  -0.000765 -38.276900   0.000000  -0.004673 -50.446200   1.961140  -1.619220 -54.266600  -0.000562  -0.002411 -39.874500   0.000000  -0.000000 -56.470000  -7.231510   4.767960 -85.157300   0.003241   0.000161 -56.714700   0.000490   0.002492  11.737100  -9.375860  13.187900  61.066000  32.107700  26.747800 -22.784400 -24.470900  78.400300 -78.179400 -74.164800 -87.392100 -45.563700  50.696700  90.731300  43.480300   0.004980  -0.004619  17.886400   0.000933  -0.000593  61.972400   9.812120   5.183800  51.068900  -0.001748   0.003403  38.301700  -0.002713   0.006567  58.984300   3.645850   2.189740  59.054000   0.000000   0.000929  44.290600  -0.000543   0.004443  65.104500  -1.546440  -0.717286  65.114100  -0.005360  -0.004495  48.835600  -0.007509   0.004426  56.830800  -7.390900  -4.805220  85.711900   0.002322   0.000335  57.084100   0.003077  -0.000000   3.883830  15.656000  -1.065800   0.833607   0.042643  10.345100  -1.717760  -2.164260  -0.621788  -0.000000   0.000000   0.000000   2.605610  15.606200  -4.786930   0.144700   0.491847 -16.382800   0.852486  -2.419490   3.207380  -0.000000   0.000000   0.000000
 -0.324229  89.517900   0.586853  -2.684510 -14.005700   1.962850   0.401222  11.017600   0.233741   0.778261  22.036700   0.398305   0.839045  -5.675790   0.074001   1.419630 -11.501300   3.751410  -9.111580  -7.876880  -4.621070 -51.072600  30.255100 -41.395800  11.433300 -10.246300 -73.085000  -4.219370 -85.091700  -7.875990  42.086800  51.702600 -86.346700 -51.063100   0.001730   0.002174 -26.245300   0.000208   0.001668 -58.539900  10.352800  -6.274740 -48.361700   0.001280  -0.001069 -36.271300   0.000968  -0.000209 -43.166600   4.770640  -5.068610 -54.444100   0.002103  -0.000776 -38.245300   0.000000  -0.004644 -50.330900   1.971860  -1.634690 -54.273600  -0.000544  -0.002443 -39.852300   0.000000   0.000000 -56.419600  -7.209200   4.762460 -85.079800   0.003238   0.000152 -56.663100   0.000520   0.002466  11.753300  -9.354580  13.206700  61.082100  32.029500  26.725300 -22.884900 -24.429100  78.357600 -78.154700 -74.192000 -87.319200 -45.268800  50.537700  90.346400  43.629400   0.005098  -0.004717  18.037200   0.000844  -0.000639  61.805800   9.840640   5.234870  50.937300  -0.001767   0.003451  38.203000  -0.002730   0.006665  58.823400   3.676380   2.221800  58.894600   0.000000   0.000921  44.171000  -0.000637   0.004516  64.960000  -1.500710  -0.700973  64.969100  -0.005431  -0.004615  48.726900  -0.007463   0.004451  56.768700  -7.363410  -4.799250  85.616500   0.002272   0.000299  57.020600   0.003098   0.000035   3.893490  15.636700  -1.081730   0.825017   0.090036  10.361800  -1.717420  -2.201750  -0.627627  -0.000000   0.000000  -0.000000   2.622330  15.620000  -4.775940   0.134147   0.481255 -16.389500   0.855680  -2.426380   3.196740  -0.000000   0.000000   0.000000
 -0.323519  89.511900   0.607162  -2.689580 -14.000700   1.964170   0.406445  10.991500   0.236381   0.788128  21.984500   0.403037   0.833024  -5.627600   0.073509   1.407390 -11.404000   3.647810  -9.135000  -7.862060  -4.613430 -50.902500  30.240100 -41.451600  11.386800 -10.258300 -73.090500  -4.835350 -85.130700  -8.491130  42.356300  51.781100 -86.682600 -50.776000   0.001719   0.002066 -25.898700   0.000197   0.001635 -58.449500  10.365800  -6.304540 -48.290600   0.001259  -0.001057 -36.218000   0.000957  -0.000220 -43.046700   4.770580  -5.090310 -54.444300   0.002101  -0.000785 -38.213700   0.000000  -0.004620 -50.262700   1.978240  -1.643860 -54.277800  -0.000525  -0.002472 -39.839300   0.000000   0.000000 -56.403000  -7.201810   4.760630 -85.054200   0.003232   0.000145 -56.646100   0.000549   0.002440  11.771100  -9.334990  13.222200  61.097500  31.958300  26.705000 -23.012600 -24.372900  78.283700 -78.129400 -74.203200 -87.249000 -44.853700  50.304400  89.805200  43.838600   0.005214  -0.004846  18.248500   0.000756  -0.000687  61.714300   9.856290   5.262890  50.865100  -0.001783   0.003499  38.148900  -0.002744   0.006763  58.745800   3.690900   2.237420  58.817800   0.000000   0.000911  44.113400  -0.000728   0.004586  64.902300  -1.482540  -0.694272  64.911300  -0.005503  -0.004732  48.683500  -0.007418   0.004479  56.706600  -7.335910  -4.793290  85.521100   0.002225   0.000261  56.957000   0.003119   0.000090   3.898440  15.617500  -1.091610   0.815708   0.144205  10.371500  -1.717070  -2.243090  -0.632265  -0.000000   0.000000  -0.000000   2.637210  15.631600  -4.770680   0.122323   0.476252 -16.390400   0.859027  -2.436030   3.186180   0.000000   0.000000  -0.000000
